<svg width="50" height="50" viewBox="0 0 50 50" fill="none" xmlns="http://www.w3.org/2000/svg">
<circle cx="25" cy="25" r="24" stroke="#FF75C8" stroke-width="2"/>
<path d="M16.1458 16.1978L18.5484 18.2299C18.7024 18.3564 18.8648 18.4576 19.0444 18.4576C19.2325 18.4576 19.3949 18.3564 19.5489 18.2299L21.9515 16.1978C22.6612 15.6076 21.8233 14.5283 21.0366 15.2281L19.0444 17.0242L17.0607 15.2281C16.2655 14.5283 15.4361 15.6076 16.1458 16.1978Z" fill="#A55EDA"/>
<path fill-rule="evenodd" clip-rule="evenodd" d="M33.3152 33.7701H21.0366C20.593 33.2828 20.5346 32.9838 21.0366 32.4126H33.2895C34.136 32.4126 34.6233 31.9657 34.6233 31.0887V22.4038C34.6233 21.5268 34.136 21.08 33.2895 21.08H30.5277C29.7582 21.08 29.3392 20.9366 28.9117 20.4644L28.2447 19.7224C27.7573 19.1828 27.5008 19.0478 26.7484 19.0478H24.1917C23.4393 19.0478 23.1828 19.1828 22.6954 19.7224L22.0285 20.4644C21.601 20.9366 21.182 21.08 20.4125 21.08H17.702C16.864 21.08 16.3766 21.5268 16.3766 22.4038V31.0887C16.3766 31.9657 16.864 32.4126 17.702 32.4126C18.1259 32.9517 18.0773 33.248 17.6849 33.7701C15.8978 33.7701 15 32.8932 15 31.1562V22.3279C15 20.5909 15.8978 19.7224 17.6849 19.7224H20.0704C20.7374 19.7224 20.9511 19.5791 21.3359 19.1659L22.0199 18.407C22.4475 17.9432 22.8835 17.6903 23.7643 17.6903H27.1758C28.0566 17.6903 28.4927 17.9432 28.9201 18.407L29.6042 19.1659C29.989 19.5875 30.1942 19.7224 30.8697 19.7224H33.3152C35.0936 19.7224 36 20.5909 36 22.3279V31.1562C36 32.8932 35.0936 33.7701 33.3152 33.7701ZM30.16 26.586C30.16 29.1578 28.0822 31.1983 25.5 31.1983C22.9092 31.1983 20.8314 29.1578 20.8314 26.586C20.8314 24.0227 22.9092 21.9822 25.5 21.9822C28.0908 21.9822 30.16 24.0227 30.16 26.586ZM22.1226 26.586C22.1226 28.4411 23.6445 29.9167 25.5 29.9167C27.364 29.9167 28.8688 28.4411 28.8688 26.586C28.8688 24.7395 27.364 23.2554 25.5 23.2554C23.636 23.2554 22.1226 24.7395 22.1226 26.586ZM31.5879 24.5371C30.998 24.5371 30.5105 24.0733 30.5105 23.4831C30.5105 22.9266 30.998 22.4375 31.5879 22.4375C32.1522 22.4375 32.6481 22.9266 32.6481 23.4831C32.6481 24.0649 32.1522 24.5371 31.5879 24.5371Z" fill="#A55EDA"/>
</svg>
